<svg xmlns="http://www.w3.org/2000/svg" width="512" height="512" shape-rendering="geometricPrecision" text-rendering="geometricPrecision" image-rendering="optimizeQuality" fill-rule="evenodd" clip-rule="evenodd"><path d="M511.5 162.5v264c-6.278 23.108-21.278 36.608-45 40.5a44499 44499 0 01-422 0c-23.722-3.892-38.722-17.392-45-40.5v-264c5.21-19.713 17.543-32.88 37-39.5a2662.139 2662.139 0 01125-1.5 425.108 425.108 0 011.5-48c4.241-15.24 14.075-24.74 29.5-28.5 42-.667 84-.667 126 0 15.425 3.76 25.259 13.26 29.5 28.5a425.108 425.108 0 011.5 48c41.714-.478 83.381.022 125 1.5 19.457 6.62 31.791 19.787 37 39.5zm-313-87c38.001-.167 76.001 0 114 .5 2.167.833 3.667 2.333 4.5 4.5.5 13.663.667 27.329.5 41h-124a840.27 840.27 0 01.5-41c1.025-2.187 2.525-3.854 4.5-5zm-152 77c139.334-.167 278.667 0 418 .5 8.536 1.869 13.703 7.036 15.5 15.5.5 16.33.667 32.663.5 49h-450c-.167-16.337 0-32.67.5-49a35.155 35.155 0 015-10c3.35-2.421 6.85-4.421 10.5-6zm-16 96h140c-3.234 27.362 6.766 48.195 30 62.5a98.93 98.93 0 0015 5c26.667 2 53.333 2 80 0 24.367-6.368 39.201-21.868 44.5-46.5.5-6.992.666-13.992.5-21h140c.167 57.334 0 114.668-.5 172-2.944 9.608-9.444 14.774-19.5 15.5-136.667.667-273.333.667-410 0-10.056-.726-16.556-5.892-19.5-15.5-.5-57.332-.667-114.666-.5-172zm171 0h108c1.457 10.554-.709 20.221-6.5 29-3.677 3.923-8.177 6.423-13.5 7.5-22.667.667-45.333.667-68 0-9.149-2.158-15.316-7.658-18.5-16.5a86.62 86.62 0 01-1.5-20z" opacity=".977"/></svg>