<svg xmlns="http://www.w3.org/2000/svg" width="512" height="512" shape-rendering="geometricPrecision" text-rendering="geometricPrecision" image-rendering="optimizeQuality" fill-rule="evenodd" clip-rule="evenodd"><path fill="#ffd063" d="M166.5 13.5a686.216 686.216 0 01134 9.5c21.762 3.586 42.096 10.919 61 22 5.941 4.383 9.441 10.216 10.5 17.5l1 155c39.824 30.799 53.824 70.799 42 120-3.1 11.032-7.934 21.199-14.5 30.5l12 12c2.313-.149 4.647-.649 7-1.5 1.438.219 2.771.719 4 1.5l74.5 74.5c8.553 14.905 6.386 28.072-6.5 39.5-11.767 6.445-23.1 5.778-34-2L385 419.5c-2.09-3.621-1.923-7.121.5-10.5L373 396.5c1.242 12.313-2.925 22.147-12.5 29.5-17.897 10.745-37.23 17.745-58 21-61.378 10.28-123.045 12.28-185 6a347.924 347.924 0 01-79-17c-10.258-3.71-19.09-9.543-26.5-17.5l-3-6c-.994-119.056-.66-238.056 1-357 3.886-6.886 9.386-12.053 16.5-15.5 24.87-11.051 50.87-18.051 78-21a1016.182 1016.182 0 0162-5.5zm-1 15a660.77 660.77 0 01133 9.5c18.356 3.23 35.69 9.23 52 18 3.031 2.064 5.364 4.73 7 8-3.049 4.716-7.049 8.382-12 11-18.878 8.304-38.545 13.97-59 17-66.055 10.246-132.055 9.913-198-1-19.98-2.994-38.98-8.994-57-18-9.492-4.9-10.159-10.567-2-17 15.043-8.237 31.043-13.904 48-17 29.226-5.672 58.56-9.172 88-10.5zm191 57c.667 10.495 1 21.161 1 32a321.184 321.184 0 01-1.5 35c-6.455 6.148-13.955 10.648-22.5 13.5-35.17 10.834-71.17 16.834-108 18a687.495 687.495 0 01-130-6c-21.6-2.899-42.266-8.899-62-18-3.908-2.032-7.075-4.866-9.5-8.5a704.74 704.74 0 01.5-65c19.562 9.797 40.229 16.297 62 19.5 67.278 10.908 134.611 11.242 202 1a257.579 257.579 0 0059-16c3.398-1.357 6.398-3.19 9-5.5zm-333 86a140.21 140.21 0 0026 11.5c46.194 12.185 93.194 17.685 141 16.5 46.39 1.028 92.056-4.139 137-15.5a135.088 135.088 0 0029.5-12.5c.833 12.347.666 24.68-.5 37-48.183-18.743-90.35-9.743-126.5 27-8.735 10.293-15.569 21.793-20.5 34.5-50.344 2.333-100.011-2.334-149-14-13.917-2.875-26.084-9.042-36.5-18.5-.5-21.997-.667-43.997-.5-66zm283 42c47.557 1.18 79.057 24.18 94.5 69 9.156 44.498-5.011 79.331-42.5 104.5-38.201 19.479-74.201 16.146-108-10-34.755-34.942-40.921-74.442-18.5-118.5 17.836-26.665 42.669-41.665 74.5-45zm0 27c39.172 1.009 62.672 20.676 70.5 59 1.574 33.374-12.926 56.541-43.5 69.5-38.417 9.704-66.25-3.13-83.5-38.5-10.304-34.542-.471-61.708 29.5-81.5 8.648-4.385 17.648-7.218 27-8.5zm-283 17c25.278 12.155 51.944 19.655 80 22.5a726.366 726.366 0 00102 5.5c-4.228 23.946-1.228 46.946 9 69-38.113 2.626-76.113 1.126-114-4.5-24.168-2.79-47.168-9.457-69-20a25.558 25.558 0 01-6.5-5.5 763.879 763.879 0 01-1.5-67zm0 86c26.38 12.013 54.047 19.513 83 22.5a834.85 834.85 0 00118 5c31.177 38.169 70.844 51.169 119 39a79.696 79.696 0 0013.5-5.5c.22 3.627-1.28 6.461-4.5 8.5-16.034 9.68-33.367 16.013-52 19-60.372 10.305-121.038 12.305-182 6-28.712-2.474-56.379-9.141-83-20a58.289 58.289 0 01-10.5-7.5 763.879 763.879 0 01-1.5-67zm366 37c4.739 3.231 9.072 7.064 13 11.5a46.607 46.607 0 01-6 5.5 194.412 194.412 0 01-12-11.5c2.186-1.412 3.852-3.245 5-5.5zm29 17c5.742 4.235 11.075 9.068 16 14.5L417 429.5a307.286 307.286 0 01-14.5-15c5.355-5.687 10.688-11.354 16-17zm26 26a740.84 740.84 0 0140.5 39c6.011 11.131 2.844 18.131-9.5 21a15.505 15.505 0 01-7-2.5L429 441.5c-.667-.667-.667-1.333 0-2a348.625 348.625 0 0015.5-16z" opacity=".962"/><path fill="#ffd063" d="M306.5 225.5c48.224 1.347 76.724 25.68 85.5 73 1.91 40.368-15.59 68.534-52.5 84.5-42.56 11.955-75.727-.545-99.5-37.5-15.368-32.786-12.034-63.452 10-92 15.25-16.708 34.083-26.042 56.5-28zm0 15c-9.352 1.282-18.352 4.115-27 8.5-29.971 19.792-39.804 46.958-29.5 81.5 17.25 35.37 45.083 48.204 83.5 38.5 30.574-12.959 45.074-36.126 43.5-69.5-7.828-38.324-31.328-57.991-70.5-59z" opacity=".96"/></svg>