<svg xmlns="http://www.w3.org/2000/svg" width="512" height="512" shape-rendering="geometricPrecision" text-rendering="geometricPrecision" image-rendering="optimizeQuality" fill-rule="evenodd" clip-rule="evenodd"><path d="M239.5-.5h32c-.167 130.667 0 261.334.5 392l68-68 23.5 23.5-98 98c-6.667 3.333-13.333 3.333-20 0l-98-98 23.5-23.5 68 68c.5-130.666.667-261.333.5-392z" opacity=".985"/><path d="M511.5 165.5v308c-5.667 19.667-18.333 32.333-38 38h-436c-19.667-5.667-32.333-18.333-38-38v-308c4.878-18.049 16.211-30.216 34-36.5a1517.92 1517.92 0 0194-1.5v32c-26.669-.167-53.335 0-80 .5-7.066.447-11.9 3.947-14.5 10.5a5645.323 5645.323 0 00-1.5 149c-.155 49.703.345 99.37 1.5 149 2.6 6.553 7.434 10.053 14.5 10.5 138.667.667 277.333.667 416 0 7.066-.447 11.899-3.947 14.5-10.5a5647.046 5647.046 0 001.5-149c.155-49.703-.345-99.37-1.5-149-2.601-6.553-7.434-10.053-14.5-10.5-26.665-.5-53.331-.667-80-.5v-32c31.383-.47 62.716.03 94 1.5 17.789 6.284 29.122 18.451 34 36.5z" opacity=".994"/></svg>