<svg xmlns="http://www.w3.org/2000/svg" width="512" height="512" shape-rendering="geometricPrecision" text-rendering="geometricPrecision" image-rendering="optimizeQuality" fill-rule="evenodd" clip-rule="evenodd"><path fill="#ff5b3c" d="M110.5-.5h4a38.717 38.717 0 005 2.5L151 33.5c3.018 12.647-1.815 17.813-14.5 15.5A373.286 373.286 0 01113 26.5a738.344 738.344 0 00-19.5 28h-24c9.5-18.326 21-35.326 34.5-51 2.095-1.625 4.261-2.958 6.5-4z" opacity=".939"/><path fill="#ff5b3c" d="M277.5-.5h38c42.583 5.624 78.583 23.957 108 55h-31c-44.109-33.616-92.776-42.116-146-25.5-16.715 6.187-32.048 14.687-46 25.5h-31c29.428-31.048 65.428-49.381 108-55z" opacity=".947"/><path fill="#ff583f" d="M69.5 54.5h24a205.933 205.933 0 01-9 17h-23c1.884-6.098 4.55-11.765 8-17z" opacity=".943"/><path fill="#ff583f" d="M169.5 54.5h31a4589.947 4589.947 0 00-18 17h-27a85.813 85.813 0 0114-17z" opacity=".94"/><path fill="#ff583f" d="M392.5 54.5h31a85.813 85.813 0 0114 17h-27a42656.23 42656.23 0 01-18-17z" opacity=".938"/><path fill="#ff5542" d="M61.5 71.5h23a239.064 239.064 0 00-17 50h-22c3.157-17.466 8.49-34.133 16-50z" opacity=".947"/><path fill="#ff5542" d="M155.5 71.5h27c-12.848 14.872-22.848 31.539-30 50h-23c6.072-18.149 14.739-34.816 26-50z" opacity=".946"/><path fill="#ff5542" d="M410.5 71.5h27c11.483 14.965 19.816 31.632 25 50h-22c-7.085-18.418-17.085-35.085-30-50z" opacity=".943"/><path fill="#ff5245" d="M45.5 121.5h22a224.655 224.655 0 01-3 13h-21a38.484 38.484 0 012-13z" opacity=".949"/><path fill="#ff5245" d="M129.5 121.5h23l-4 13h-22a183.218 183.218 0 003-13z" opacity=".948"/><path fill="#ff5245" d="M440.5 121.5h22c1.779 4.094 3.112 8.427 4 13h-22l-4-13z" opacity=".947"/><path fill="#ff4e48" d="M43.5 134.5h21c-2.738 18.322-3.404 36.655-2 55h-22a69.245 69.245 0 00-1-16 287.22 287.22 0 014-39z" opacity=".961"/><path fill="#ff4e48" d="M126.5 134.5h22c-4.684 18.098-6.017 36.431-4 55h-22a197.149 197.149 0 014-55z" opacity=".955"/><path fill="#ff4e48" d="M444.5 134.5h22c3.881 18.203 5.214 36.537 4 55h-22c1.9-18.567.567-36.901-4-55z" opacity=".954"/><path fill="#ff4b4b" d="M40.5 189.5h22a160.33 160.33 0 001 17h-21a110.578 110.578 0 01-2-17z" opacity=".948"/><path fill="#ff4b4b" d="M122.5 189.5h22a446.684 446.684 0 012 17h-21a150.116 150.116 0 01-3-17zm326 0h22a174.494 174.494 0 01-3 17h-22a104.946 104.946 0 003-17z" opacity=".946"/><path fill="#ff474e" d="M42.5 206.5h21a283.455 283.455 0 0018 63h-23c-8.306-20.223-13.64-41.223-16-63z" opacity=".947"/><path fill="#ff474e" d="M125.5 206.5h21c5.794 23.254 16.127 44.254 31 63h-27c-12.831-19.15-21.165-40.15-25-63zm320 0h22c-4.178 22.683-12.511 43.683-25 63h-27c15.068-18.473 25.068-39.473 30-63z" opacity=".946"/><path fill="#ff4154" d="M58.5 269.5h23c10.585 22.178 23.918 42.512 40 61h-27c-15.216-18.267-27.216-38.6-36-61z" opacity=".94"/><path fill="#ff4054" d="M150.5 269.5h27c40.302 46.494 90.968 64.327 152 53.5 34.776-8.326 63.442-26.159 86-53.5h27c-17.836 27.173-41.503 47.507-71 61h-150c-29.499-13.496-53.166-33.829-71-61z" opacity=".943"/><path fill="#ff3f56" d="M447.5 330.5h-27c-1.309-7.665 2.024-11.998 10-13a20.2 20.2 0 016 1.5 177.724 177.724 0 0111 11.5z" opacity=".913"/><path fill="#fe3e56" d="M94.5 330.5h27a25.658 25.658 0 016 6h-29a17.91 17.91 0 01-4-6z" opacity=".933"/><path fill="#fe3e56" d="M221.5 330.5h150c-4.144 3.068-8.811 5.068-14 6h-122c-5.189-.932-9.856-2.932-14-6z" opacity=".978"/><path fill="#fe3e56" d="M420.5 330.5h27a25.658 25.658 0 016 6h-30c-1.846-1.53-2.846-3.53-3-6z" opacity=".951"/><path fill="#ff3b5a" d="M98.5 336.5h29c23.761 24.386 51.427 43.053 83 56h-46c-25.285-14.604-47.285-33.271-66-56z" opacity=".94"/><path fill="#ff3d58" d="M235.5 336.5h122c-37.474 14.054-75.474 15.221-114 3.5-2.874-.942-5.54-2.109-8-3.5z" opacity=".93"/><path fill="#ff3b5a" d="M423.5 336.5h30a284.889 284.889 0 0114.5 14c2.828 3.802 3.161 7.802 1 12-11.623 12.058-24.789 22.058-39.5 30h-47c22.018-9.174 42.351-21.174 61-36a282.875 282.875 0 00-20-20z" opacity=".947"/><path fill="#fe375c" d="M164.5 392.5h46a455.102 455.102 0 0040 12h-64c-7.982-2.988-15.315-6.988-22-12z" opacity=".943"/><path fill="#fe375d" d="M382.5 392.5h47a125.566 125.566 0 01-23 12h-65a380.026 380.026 0 0041-12z" opacity=".941"/><path fill="#ff355f" d="M186.5 404.5h64c30.329 5.311 60.663 5.311 91 0h65c-31.094 15.357-64.094 23.691-99 25v36h-22v-36c-34.906-1.31-67.906-9.643-99-25z" opacity=".95"/><path fill="#fe3162" d="M285.5 465.5h22v6h-22v-6z" opacity=".93"/><path fill="#ff2e65" d="M285.5 471.5h22v19a543.786 543.786 0 0156 1.5c6.799 6.896 6.466 13.396-1 19.5h-132c-7.561-6.024-7.894-12.524-1-19.5a543.786 543.786 0 0156-1.5v-19z" opacity=".964"/></svg>