<svg xmlns="http://www.w3.org/2000/svg" width="512" height="512" shape-rendering="geometricPrecision" text-rendering="geometricPrecision" image-rendering="optimizeQuality" fill-rule="evenodd" clip-rule="evenodd"><path d="M511.5 248.5v14c-2.618 6.465-6.952 11.631-13 15.5a11675.76 11675.76 0 00-115 89c-60.982 48.791-128.315 59.791-202 33-19.636-8.477-37.636-19.477-54-33A9045.33 9045.33 0 014 270.5a48.479 48.479 0 01-4.5-8v-14c2.618-6.465 6.952-11.631 13-15.5a11672.211 11672.211 0 00115-89c63.671-50.572 133.337-60.572 209-30 16.853 8.253 32.52 18.253 47 30A9049.638 9049.638 0 01507 240.5a48.484 48.484 0 014.5 8zm-267-101c50.895-1.816 87.728 19.85 110.5 65 17.819 48.56 7.986 90.726-29.5 126.5-38.96 29.683-80.293 33.35-124 11-43.343-28.314-60.51-68.147-51.5-119.5 14.258-47.431 45.758-75.098 94.5-83z" opacity=".982"/><path d="M247.5 195.5c41.263-.566 64.263 19.6 69 60.5-4.65 40.336-27.317 60.336-68 60-28.758-4.618-46.258-21.118-52.5-49.5-2.939-38.525 14.227-62.191 51.5-71z" opacity=".981"/></svg>