<svg xmlns="http://www.w3.org/2000/svg" width="512" height="512" shape-rendering="geometricPrecision" text-rendering="geometricPrecision" image-rendering="optimizeQuality" fill-rule="evenodd" clip-rule="evenodd"><path d="M511.5 166.5v34c-6.613 37.232-21.446 70.898-44.5 101-20.68 26.686-43.514 51.519-68.5 74.5a959.089 959.089 0 01-134 99c-6 3.333-12 3.333-18 0-64.602-38.439-123.102-84.939-175.5-139.5-26.244-28.275-46.911-60.275-62-96-4.295-12.182-7.461-24.515-9.5-37v-35c6.144-48.808 29.478-86.975 70-114.5 45.988-25.999 91.988-25.999 138 0 19.523 12.69 35.523 28.856 48 48.5 40.793-60.322 96.127-79.822 166-58.5 43.385 19.245 71.552 51.745 84.5 97.5a363.92 363.92 0 015.5 26z" opacity=".994"/></svg>