<svg xmlns="http://www.w3.org/2000/svg" width="512" height="512" shape-rendering="geometricPrecision" text-rendering="geometricPrecision" image-rendering="optimizeQuality" fill-rule="evenodd" clip-rule="evenodd"><path d="M246.5-.5h18c6.714 1.748 13.047 4.581 19 8.5l208 128c10.518 7.329 17.185 17.163 20 29.5v18c-4.359 16.871-14.693 28.704-31 35.5a136.123 136.123 0 0122.5 16.5 84.225 84.225 0 018.5 15v15c-2.179 6.681-5.679 12.681-10.5 18a693.901 693.901 0 01-19.5 14c8.197 5.02 15.697 11.02 22.5 18 3.357 5.042 5.857 10.376 7.5 16v17c-3.365 11.189-10.032 20.023-20 26.5l-208 128c-5.953 3.919-12.286 6.752-19 8.5h-18c-8.568-2.449-16.568-6.282-24-11.5a31458.829 31458.829 0 00-203-125c-9.968-6.477-16.635-15.311-20-26.5v-17c2.613-9.81 7.946-17.977 16-24.5a153.005 153.005 0 0014-9.5 100.157 100.157 0 01-24.5-20l-5.5-11v-16c3.532-9.042 9.198-16.542 17-22.5a97.036 97.036 0 0014-9c-16.307-6.796-26.64-18.629-31-35.5v-18c3.025-12.191 9.691-22.024 20-29.5l217-133c3.48-1.103 6.813-2.27 10-3.5zm4 31c4.949-.541 9.616.292 14 2.5A23296.108 23296.108 0 01478 165.5c5.221 10.324 2.721 18.158-7.5 23.5a33837.1 33837.1 0 01-211 129c-5.893 1.062-11.226-.271-16-4a31456.09 31456.09 0 00-203-125c-10.221-5.342-12.721-13.176-7.5-23.5a40567.328 40567.328 0 01217.5-135zm-192 208c4.104.384 7.77 1.884 11 4.5l160 99c17.333 10 34.667 10 52 0a21307.069 21307.069 0 01167-103c1.333-.667 2.667-.667 4 0a401.586 401.586 0 0123 14 14.488 14.488 0 015 5.5 38.929 38.929 0 01-5 5.5l-208 128c-5.813 4.517-12.146 5.517-19 3a34639.494 34639.494 0 00-213-131l-4.5-4.5c-.492-1.049-.326-2.049.5-3a616.72 616.72 0 0127-18zm0 78c4.978 1.32 9.645 3.487 14 6.5l157 97c17.333 10 34.667 10 52 0l167-103c2.135-.635 4.135-.301 6 1a193.026 193.026 0 0124.5 16.5c2.717 7.08.55 12.247-6.5 15.5l-208 128c-8.271 3.939-15.937 2.939-23-3l-206-127c-4.951-3.554-6.118-8.054-3.5-13.5a393.5 393.5 0 0126.5-18z" opacity=".962"/></svg>