<svg xmlns="http://www.w3.org/2000/svg" width="512" height="512" shape-rendering="geometricPrecision" text-rendering="geometricPrecision" image-rendering="optimizeQuality" fill-rule="evenodd" clip-rule="evenodd"><path d="M164.5-.5h22a152.03 152.03 0 0116 5.5l120 60c5.814 2.169 11.481 1.835 17-1a5907.676 5907.676 0 0185-59 152.03 152.03 0 0116-5.5h22c26 6.667 42.333 23 49 49v334c-3.319 14.452-10.652 26.619-22 36.5a13086.036 13086.036 0 01-127 87 151.96 151.96 0 01-16 5.5h-22a151.96 151.96 0 01-16-5.5l-120-60c-5.814-2.169-11.481-1.835-17 1a5908.48 5908.48 0 01-85 59 151.96 151.96 0 01-16 5.5h-22c-26-6.667-42.333-23-49-49v-334c3.319-14.452 10.652-26.619 22-36.5a13078.788 13078.788 0 01127-87 152.03 152.03 0 0116-5.5zm5 41a72.442 72.442 0 0112 .5l122 61c19.801 8.085 39.134 7.085 58-3a2876.116 2876.116 0 0184-58c11.554-2.307 19.721 1.86 24.5 12.5a6686.244 6686.244 0 011.5 162 6686.244 6686.244 0 01-1.5 162c-1.302 3.774-3.469 6.941-6.5 9.5a7601.379 7601.379 0 01-122 83c-4 .667-8 .667-12 0l-122-61c-19.809-8.085-39.142-7.085-58 3a2876.041 2876.041 0 01-84 58c-11.554 2.307-19.72-1.86-24.5-12.5a6687.266 6687.266 0 01-1.5-162 6687.266 6687.266 0 011.5-162c1.302-3.774 3.469-6.941 6.5-9.5a13814.03 13814.03 0 01122-83.5z" opacity=".979"/><path d="M169.5 87.5c11.958-2.106 20.458 2.227 25.5 13 .667 83.333.667 166.667 0 250-6.927 13.865-17.427 17.365-31.5 10.5-3.616-2.742-6.116-6.242-7.5-10.5-.667-83.333-.667-166.667 0-250 2.442-6.612 6.942-10.945 13.5-13zm161 59c11.751-1.38 19.918 3.287 24.5 14 .667 83.333.667 166.667 0 250-6.776 12.816-16.943 16.316-30.5 10.5-3.89-2.596-6.723-6.096-8.5-10.5-.667-83.333-.667-166.667 0-250 2.749-6.917 7.582-11.583 14.5-14z" opacity=".993"/></svg>