<svg xmlns="http://www.w3.org/2000/svg" width="512" height="512" shape-rendering="geometricPrecision" text-rendering="geometricPrecision" image-rendering="optimizeQuality" fill-rule="evenodd" clip-rule="evenodd"><path d="M377.5-.5h11c16.731 8.2 33.397 16.7 50 25.5L487 73.5a779.01 779.01 0 0024.5 47v16a59944.107 59944.107 0 01-356 357.5 28.352 28.352 0 01-11 3 5221.834 5221.834 0 00-113 14.5h-24c-3.38-2.38-6.047-5.38-8-9v-15a11474.42 11474.42 0 0017.5-126l2-4L370.5 4c2.26-1.788 4.593-3.288 7-4.5zm8 37a370.001 370.001 0 0133 15.5L460 93.5l15 30c.667 1 .667 2 0 3l-31 31-14-28L382.5 82l-27-14.5 30-31zm-56 56l33 16.5 40.5 40.5a1481.665 1481.665 0 0016.5 32.5l-13 13c-.832.688-1.498.521-2-.5l-12.5-25-49.5-49.5a479.057 479.057 0 01-26-13.5c4.355-4.687 8.688-9.354 13-14zm-39 39a704.926 704.926 0 0132 15.5l41.5 41.5a1481.665 1481.665 0 0016.5 32.5A27145.37 27145.37 0 01185 417.5a324.42 324.42 0 01-6-27c-1.652-7.243-6.152-11.409-13.5-12.5a572.699 572.699 0 00-29-3.5 665.223 665.223 0 00-2.5-27c-.799-7.778-4.965-12.611-12.5-14.5a276.717 276.717 0 01-25-6 53701.342 53701.342 0 01194-195.5zm-223 224a541.37 541.37 0 0035 7 571.136 571.136 0 002.5 25c-.048 7.41 3.119 12.91 9.5 16.5a1401.033 1401.033 0 0034 5.5 403.962 403.962 0 017.5 37L138.5 464a2206.402 2206.402 0 01-104 12.5c4.785-33.995 9.618-67.995 14.5-102a494.633 494.633 0 0018.5-19z" opacity=".965"/></svg>