<svg xmlns="http://www.w3.org/2000/svg" width="512" height="512" shape-rendering="geometricPrecision" text-rendering="geometricPrecision" image-rendering="optimizeQuality" fill-rule="evenodd" clip-rule="evenodd"><path d="M245.5-.5h20c17.984 5.152 29.484 16.818 34.5 35 .5 58.666.667 117.332.5 176 58.668-.167 117.334 0 176 .5 18.182 5.016 29.848 16.516 35 34.5v20c-5.152 17.984-16.818 29.484-35 34.5-58.666.5-117.332.667-176 .5.167 58.668 0 117.334-.5 176-5.016 18.182-16.516 29.848-34.5 35h-20c-17.984-5.152-29.484-16.818-34.5-35-.5-58.666-.667-117.332-.5-176-58.668.167-117.334 0-176-.5-18.182-5.016-29.848-16.516-35-34.5v-20c5.152-17.984 16.818-29.484 35-34.5 58.666-.5 117.332-.667 176-.5-.167-58.668 0-117.334.5-176 5.016-18.182 16.516-29.848 34.5-35z" opacity=".996"/></svg>