<svg xmlns="http://www.w3.org/2000/svg" width="512" height="512" shape-rendering="geometricPrecision" text-rendering="geometricPrecision" image-rendering="optimizeQuality" fill-rule="evenodd" clip-rule="evenodd"><path d="M381.5-.5h26c39.547 8.716 63.047 33.049 70.5 73 2.941 40.968-13.893 70.468-50.5 88.5-36.209 13.154-68.043 6.32-95.5-20.5A9437.036 9437.036 0 00195.5 226c6.667 19.667 6.667 39.333 0 59A9437.036 9437.036 0 00332 370.5c27.421-26.81 59.254-33.643 95.5-20.5 36.607 18.032 53.441 47.532 50.5 88.5-7.453 39.951-30.953 64.284-70.5 73h-26c-50.174-12.706-73.674-45.039-70.5-97a86.109 86.109 0 014.5-16.5A9568.508 9568.508 0 00179 313.5c-31.284 28.407-66.117 33.574-104.5 15.5-35.016-23.014-48.182-55.18-39.5-96.5 15.533-43.361 46.366-63.527 92.5-60.5 19.848 3.205 37.015 11.705 51.5 25.5A9568.508 9568.508 0 00315.5 113c-12.353-39.267-2.687-71.933 29-98 11.265-7.973 23.598-13.14 37-15.5zm7 31c35.112.445 54.779 18.111 59 53-2.065 25.305-15.065 42.139-39 50.5-28.035 5.399-48.869-4.435-62.5-29.5-9.574-27.664-2.407-49.83 21.5-66.5 6.709-3.706 13.709-6.206 21-7.5zm-277 172c34.432 1.207 53.766 18.873 58 53-3.336 32.002-21.002 49.669-53 53-32.019-3.352-49.685-21.019-53-53 2.781-29.776 18.781-47.442 48-53zm282 172c25.707 1.766 42.873 14.766 51.5 39 5.399 28.035-4.435 48.869-29.5 62.5-24.345 8.872-45.178 3.705-62.5-15.5-15.592-22.569-15.258-44.903 1-67 10.853-11.345 24.02-17.678 39.5-19z" opacity=".964"/></svg>