<?xml version="1.0" encoding="utf-8"?><svg viewBox="0 0 512 512" xmlns="http://www.w3.org/2000/svg" xmlns:xlink="http://www.w3.org/1999/xlink"><style>:root>svg{display:none}:root>svg:target{display:block}</style><svg shape-rendering="geometricPrecision" text-rendering="geometricPrecision" image-rendering="optimizeQuality" fill-rule="evenodd" clip-rule="evenodd" viewBox="0 0 512 512" id="bulb" xmlns="http://www.w3.org/2000/svg"><path fill="#029ae4" d="M245.5 9.5c59.083-1.538 106.25 21.129 141.5 68 32.432 50.293 37.432 103.293 15 159a209.144 209.144 0 0 1-17 29 612.899 612.899 0 0 1-28 31c-2.599 3.964-4.099 8.297-4.5 13a925.095 925.095 0 0 1-2.5 43c-3.667 9-10 15.333-19 19l-1 61a54.628 54.628 0 0 1-2 7 179.617 179.617 0 0 1-10 15L284.5 490c-19.333 15.333-38.667 15.333-58 0L193 454.5a113.627 113.627 0 0 1-10-15 54.628 54.628 0 0 1-2-7l-1-61c-8.974-3.641-15.308-9.974-19-19a429.851 429.851 0 0 1-2-39c-.048-6.143-1.714-11.81-5-17l-25-27c-34.16-46.628-42.493-97.628-25-153 25.773-63.937 72.939-99.604 141.5-107zm9 22c59.055 2.604 101.555 30.271 127.5 83 23.407 63.704 10.074 118.37-40 164-6.711 8.12-10.711 17.453-12 28l-1 38c-1.868 4.021-5.035 6.187-9.5 6.5-42.667.667-85.333.667-128 0-4.465-.313-7.632-2.479-9.5-6.5l-1-37c-1.083-10.925-5.083-20.591-12-29-50.074-45.632-63.408-100.299-40-164 25.795-51.82 67.628-79.487 125.5-83z" opacity=".974"/><path fill="#029ae4" d="M185.5 74.5c1.517.01 2.684.677 3.5 2A398.28 398.28 0 0 1 199.5 92c-25.08 19.994-38.08 46.161-39 78.5h-23c1.162-39.658 17.162-71.658 48-96z" opacity=".958"/><path fill="#aee2fb" d="M202.5 372.5h106v22h-106v-22z"/><path fill="#b2e4fb" d="M202.5 415.5h106a57.025 57.025 0 0 1-1.5 17 11.532 11.532 0 0 1-4.5 3.5c-31.333.667-62.667.667-94 0-2.5-1.167-4.333-3-5.5-5.5a112.97 112.97 0 0 1-.5-15z"/><path fill="#3db3ec" d="M283.5 458.5a756.853 756.853 0 0 0-55 1c-.789-.283-1.456-.783-2-1.5 19.741-.826 38.741-.66 57 .5z"/><path fill="#b1e4fb" d="M283.5 458.5a468.225 468.225 0 0 1-18 18.5c-6.722 3.21-13.388 3.21-20 0a418.271 418.271 0 0 1-17-17.5 756.853 756.853 0 0 1 55-1z"/></svg><svg shape-rendering="geometricPrecision" text-rendering="geometricPrecision" image-rendering="optimizeQuality" fill-rule="evenodd" clip-rule="evenodd" viewBox="0 0 512 512" id="data-searching" xmlns="http://www.w3.org/2000/svg"><path fill="#ffd063" d="M166.5 13.5a686.216 686.216 0 0 1 134 9.5c21.762 3.586 42.096 10.919 61 22 5.941 4.383 9.441 10.216 10.5 17.5l1 155c39.824 30.799 53.824 70.799 42 120-3.1 11.032-7.934 21.199-14.5 30.5l12 12c2.313-.149 4.647-.649 7-1.5 1.438.219 2.771.719 4 1.5l74.5 74.5c8.553 14.905 6.386 28.072-6.5 39.5-11.767 6.445-23.1 5.778-34-2L385 419.5c-2.09-3.621-1.923-7.121.5-10.5L373 396.5c1.242 12.313-2.925 22.147-12.5 29.5-17.897 10.745-37.23 17.745-58 21-61.378 10.28-123.045 12.28-185 6a347.924 347.924 0 0 1-79-17c-10.258-3.71-19.09-9.543-26.5-17.5l-3-6c-.994-119.056-.66-238.056 1-357 3.886-6.886 9.386-12.053 16.5-15.5 24.87-11.051 50.87-18.051 78-21a1016.182 1016.182 0 0 1 62-5.5zm-1 15a660.77 660.77 0 0 1 133 9.5c18.356 3.23 35.69 9.23 52 18 3.031 2.064 5.364 4.73 7 8-3.049 4.716-7.049 8.382-12 11-18.878 8.304-38.545 13.97-59 17-66.055 10.246-132.055 9.913-198-1-19.98-2.994-38.98-8.994-57-18-9.492-4.9-10.159-10.567-2-17 15.043-8.237 31.043-13.904 48-17 29.226-5.672 58.56-9.172 88-10.5zm191 57c.667 10.495 1 21.161 1 32a321.184 321.184 0 0 1-1.5 35c-6.455 6.148-13.955 10.648-22.5 13.5-35.17 10.834-71.17 16.834-108 18a687.495 687.495 0 0 1-130-6c-21.6-2.899-42.266-8.899-62-18-3.908-2.032-7.075-4.866-9.5-8.5a704.74 704.74 0 0 1 .5-65c19.562 9.797 40.229 16.297 62 19.5 67.278 10.908 134.611 11.242 202 1a257.579 257.579 0 0 0 59-16c3.398-1.357 6.398-3.19 9-5.5zm-333 86a140.21 140.21 0 0 0 26 11.5c46.194 12.185 93.194 17.685 141 16.5 46.39 1.028 92.056-4.139 137-15.5a135.088 135.088 0 0 0 29.5-12.5c.833 12.347.666 24.68-.5 37-48.183-18.743-90.35-9.743-126.5 27-8.735 10.293-15.569 21.793-20.5 34.5-50.344 2.333-100.011-2.334-149-14-13.917-2.875-26.084-9.042-36.5-18.5-.5-21.997-.667-43.997-.5-66zm283 42c47.557 1.18 79.057 24.18 94.5 69 9.156 44.498-5.011 79.331-42.5 104.5-38.201 19.479-74.201 16.146-108-10-34.755-34.942-40.921-74.442-18.5-118.5 17.836-26.665 42.669-41.665 74.5-45zm0 27c39.172 1.009 62.672 20.676 70.5 59 1.574 33.374-12.926 56.541-43.5 69.5-38.417 9.704-66.25-3.13-83.5-38.5-10.304-34.542-.471-61.708 29.5-81.5 8.648-4.385 17.648-7.218 27-8.5zm-283 17c25.278 12.155 51.944 19.655 80 22.5a726.366 726.366 0 0 0 102 5.5c-4.228 23.946-1.228 46.946 9 69-38.113 2.626-76.113 1.126-114-4.5-24.168-2.79-47.168-9.457-69-20a25.558 25.558 0 0 1-6.5-5.5 763.879 763.879 0 0 1-1.5-67zm0 86c26.38 12.013 54.047 19.513 83 22.5a834.85 834.85 0 0 0 118 5c31.177 38.169 70.844 51.169 119 39a79.696 79.696 0 0 0 13.5-5.5c.22 3.627-1.28 6.461-4.5 8.5-16.034 9.68-33.367 16.013-52 19-60.372 10.305-121.038 12.305-182 6-28.712-2.474-56.379-9.141-83-20a58.289 58.289 0 0 1-10.5-7.5 763.879 763.879 0 0 1-1.5-67zm366 37c4.739 3.231 9.072 7.064 13 11.5a46.607 46.607 0 0 1-6 5.5 194.412 194.412 0 0 1-12-11.5c2.186-1.412 3.852-3.245 5-5.5zm29 17c5.742 4.235 11.075 9.068 16 14.5L417 429.5a307.286 307.286 0 0 1-14.5-15c5.355-5.687 10.688-11.354 16-17zm26 26a740.84 740.84 0 0 1 40.5 39c6.011 11.131 2.844 18.131-9.5 21a15.505 15.505 0 0 1-7-2.5L429 441.5c-.667-.667-.667-1.333 0-2a348.625 348.625 0 0 0 15.5-16z" opacity=".962"/><path fill="#ffd063" d="M306.5 225.5c48.224 1.347 76.724 25.68 85.5 73 1.91 40.368-15.59 68.534-52.5 84.5-42.56 11.955-75.727-.545-99.5-37.5-15.368-32.786-12.034-63.452 10-92 15.25-16.708 34.083-26.042 56.5-28zm0 15c-9.352 1.282-18.352 4.115-27 8.5-29.971 19.792-39.804 46.958-29.5 81.5 17.25 35.37 45.083 48.204 83.5 38.5 30.574-12.959 45.074-36.126 43.5-69.5-7.828-38.324-31.328-57.991-70.5-59z" opacity=".96"/></svg></svg>