<svg xmlns="http://www.w3.org/2000/svg" width="512" height="512" shape-rendering="geometricPrecision" text-rendering="geometricPrecision" image-rendering="optimizeQuality" fill-rule="evenodd" clip-rule="evenodd"><path fill="#471cb5" d="M107.5-.5h296c21.102 5.27 33.935 18.603 38.5 40 .667 144 .667 288 0 432-4.565 21.397-17.398 34.73-38.5 40h-296c-21.102-5.27-33.935-18.603-38.5-40-.667-144-.667-288 0-432 4.565-21.397 17.398-34.73 38.5-40zm10 28c23.343-.333 46.676 0 70 1a1117.79 1117.79 0 0111.5 24c2.863 3.015 6.363 4.849 10.5 5.5 32.048.97 64.048.637 96-1 2.602-.883 4.769-2.383 6.5-4.5a1117.79 1117.79 0 0111.5-24 817.227 817.227 0 0170-.5c9.606.6 16.106 5.433 19.5 14.5.667 142 .667 284 0 426-3.394 9.067-9.894 13.9-19.5 14.5-92 .667-184 .667-276 0-9.606-.6-16.106-5.433-19.5-14.5-.667-142-.667-284 0-426 3.553-9.076 10.053-14.076 19.5-15z" opacity=".984"/><path fill="#6bbffe" d="M238.5 27.5l-1 2a81.87 81.87 0 01-18-1 91.123 91.123 0 0119-1z"/><path fill="#8c9bff" d="M238.5 27.5h21l-1 2h-21l1-2z"/><path fill="#b471fe" d="M259.5 27.5a256.885 256.885 0 0132 1 273.125 273.125 0 01-33 1l1-2z"/><path fill="#481bb4" d="M189.5 414.5c44.001-.167 88.001 0 132 .5 10.5 4.492 13.334 11.992 8.5 22.5-2.1 2.967-4.934 4.8-8.5 5.5-44 .667-88 .667-132 0-10.5-4.492-13.334-11.992-8.5-22.5 2.322-2.895 5.155-4.895 8.5-6z" opacity=".978"/></svg>