<svg xmlns="http://www.w3.org/2000/svg" width="512" height="512" shape-rendering="geometricPrecision" text-rendering="geometricPrecision" image-rendering="optimizeQuality" fill-rule="evenodd" clip-rule="evenodd"><path d="M83.5-.5h22c7.289 2.095 13.456 6.095 18.5 12a2412.818 2412.818 0 0054 63c8.881 11.87 10.881 24.87 6 39a95.055 95.055 0 01-16.5 20A1937.468 1937.468 0 0166 13.5c.893-2.936 2.726-5.436 5.5-7.5 3.7-2.902 7.7-5.068 12-6.5z" opacity=".967"/><path d="M429.5 511.5h-17c-124.319-27.585-226.819-90.251-307.5-188C53.197 256.549 18.03 181.549-.5 98.5v-17a106.096 106.096 0 016.5-12 743.2 743.2 0 0140.5-39 1953.697 1953.697 0 00101.5 120c.667 1 .667 2 0 3-11.577 8.656-18.077 20.156-19.5 34.5.413 6.904 2.246 13.404 5.5 19.5 22.763 41.118 51.263 77.951 85.5 110.5a572.934 572.934 0 0088 61c12.508 5.24 24.508 4.24 36-3a128.578 128.578 0 0014-13c1-.667 2-.667 3 0a1953.638 1953.638 0 00120 101.5 743.492 743.492 0 01-39 40.5 106.037 106.037 0 01-12 6.5z" opacity=".985"/><path d="M511.5 405.5v22c-2.544 6.732-6.544 12.565-12 17.5-.667.667-1.333.667-2 0a1937.281 1937.281 0 01-120-101.5 229.592 229.592 0 0013-12.5c10.531-6.606 21.864-8.273 34-5a53.743 53.743 0 0112 7 2414.47 2414.47 0 0063 54c5.905 5.044 9.905 11.211 12 18.5z" opacity=".967"/></svg>