<svg xmlns="http://www.w3.org/2000/svg" width="512" height="512" shape-rendering="geometricPrecision" text-rendering="geometricPrecision" image-rendering="optimizeQuality" fill-rule="evenodd" clip-rule="evenodd"><path d="M234.5 23.5c81.977-4.575 149.477 24.092 202.5 86 48.682 64.418 62.349 135.752 41 214-22.849 69.183-67.682 118.35-134.5 147.5-78.317 28.891-152.317 20.558-222-25-46.8-33.644-77.133-78.477-91-134.5 1.244-15.078 9.411-23.411 24.5-25 8.164.415 14.83 3.749 20 10 10.456 36.099 28.956 67.266 55.5 93.5 50.882 44.619 109.216 58.619 175 42 54.031-16.702 93.197-50.535 117.5-101.5 24.523-60.22 20.19-118.22-13-174C365.939 93.394 305.439 65.894 228.5 74c-47.724 8.017-86.724 30.683-117 68a561.591 561.591 0 00-18 5.5l-1-1.5A550.491 550.491 0 0190 92.5c39.946-40.055 88.112-63.055 144.5-69z" opacity=".975"/><path d="M44.5 30.5c13.273-.296 22.106 5.704 26.5 18a9000.01 9000.01 0 017.5 118l113-32c18.892 3.066 26.725 14.066 23.5 33-2.777 6.443-7.277 11.277-13.5 14.5a21604.432 21604.432 0 01-139 41c-18.046 2.943-28.546-4.557-31.5-22.5a4012.417 4012.417 0 01-7-152c3.325-10.068 10.158-16.068 20.5-18z" opacity=".975"/></svg>